<svg width="39" height="39" viewBox="0 0 39 39" fill="none" xmlns="http://www.w3.org/2000/svg">
<path d="M27.6843 0H11.3351C4.23361 0 0 4.2315 0 11.3295V27.651C0 34.7685 4.23361 39 11.3351 39H27.6648C34.7663 39 38.9999 34.7685 38.9999 27.6705V11.3295C39.0194 4.2315 34.7858 0 27.6843 0ZM12.6813 8.541C14.6908 8.541 16.3491 10.179 16.3491 12.207C16.3491 14.235 14.7103 15.873 12.6813 15.873C10.6523 15.873 9.01349 14.196 9.01349 12.1875C9.01349 10.179 10.6718 8.541 12.6813 8.541ZM19.5097 33.306C14.2616 33.306 9.98898 29.0355 9.98898 23.79C9.98898 22.425 11.101 21.294 12.4667 21.294H26.5137C27.8794 21.294 28.9914 22.4055 28.9914 23.79C29.0305 29.0355 24.7578 33.306 19.5097 33.306ZM26.3381 15.834C24.3286 15.834 22.6703 14.196 22.6703 12.168C22.6703 10.14 24.3091 8.502 26.3381 8.502C28.3671 8.502 30.006 10.14 30.006 12.168C30.006 14.196 28.3476 15.834 26.3381 15.834Z" fill="#EF423A"/>
</svg>
