<svg width="38" height="38" viewBox="0 0 38 38" fill="none" xmlns="http://www.w3.org/2000/svg">
<circle cx="19" cy="19" r="19" fill="white"/>
<path d="M19 26C18.7722 26 18.5526 25.9188 18.3815 25.7714C17.7351 25.2156 17.1119 24.6932 16.5621 24.2324L16.5593 24.23C14.9474 22.879 13.5554 21.7123 12.5869 20.563C11.5043 19.2782 11 18.06 11 16.7291C11 15.4361 11.4508 14.2433 12.2693 13.3701C13.0975 12.4866 14.234 12 15.4697 12C16.3933 12 17.2391 12.2872 17.9836 12.8535C18.3594 13.1393 18.7 13.4892 19 13.8972C19.3002 13.4892 19.6406 13.1393 20.0165 12.8535C20.761 12.2872 21.6068 12 22.5304 12C23.766 12 24.9026 12.4866 25.7308 13.3701C26.5493 14.2433 27 15.4361 27 16.7291C27 18.06 26.4958 19.2782 25.4132 20.5629C24.4447 21.7123 23.0529 22.8789 21.4412 24.2298C20.8904 24.6913 20.2662 25.2145 19.6184 25.7717C19.4474 25.9188 19.2277 26 19 26ZM15.4697 12.9218C14.4989 12.9218 13.6071 13.3029 12.9583 13.9949C12.2998 14.6973 11.9371 15.6683 11.9371 16.7291C11.9371 17.8484 12.3601 18.8494 13.3085 19.9749C14.2251 21.0627 15.5885 22.2054 17.1671 23.5285L17.17 23.5309C17.7219 23.9935 18.3475 24.5179 18.9987 25.0778C19.6537 24.5168 20.2803 23.9916 20.8333 23.5283C22.4117 22.2051 23.775 21.0627 24.6917 19.9749C25.6399 18.8494 26.0629 17.8484 26.0629 16.7291C26.0629 15.6683 25.7002 14.6973 25.0417 13.9949C24.3931 13.3029 23.5011 12.9218 22.5304 12.9218C21.8192 12.9218 21.1663 13.1441 20.5897 13.5826C20.0759 13.9735 19.718 14.4676 19.5082 14.8134C19.4003 14.9912 19.2103 15.0973 19 15.0973C18.7897 15.0973 18.5997 14.9912 18.4918 14.8134C18.2821 14.4676 17.9242 13.9735 17.4103 13.5826C16.8337 13.1441 16.1808 12.9218 15.4697 12.9218Z" fill="black"/>
</svg>
