<svg width="38" height="38" viewBox="0 0 38 38" fill="none" xmlns="http://www.w3.org/2000/svg">
<circle cx="19" cy="19" r="19" fill="white"/>
<path d="M23.5212 25.6943C23.7017 25.6936 23.8797 25.6525 24.0422 25.5741C24.2415 25.4804 24.41 25.3322 24.5283 25.1465C24.6465 24.9608 24.7096 24.7454 24.7102 24.5253V13.1691C24.7094 13.0141 24.6779 12.8609 24.6176 12.7181C24.5572 12.5754 24.4693 12.446 24.3588 12.3373C24.2483 12.2287 24.1174 12.143 23.9737 12.0851C23.8299 12.0272 23.6761 11.9983 23.5212 12.0001H14.169C13.8595 12.0018 13.5632 12.1256 13.3443 12.3444C13.1255 12.5633 13.0018 12.8596 13 13.1691V24.5253C13.0043 24.7368 13.066 24.9432 13.1784 25.1225C13.2909 25.3017 13.4498 25.4471 13.6384 25.5431C13.827 25.6391 14.0381 25.6821 14.2491 25.6676C14.4602 25.653 14.6634 25.5815 14.837 25.4605L18.7115 22.5547C18.7399 22.5319 18.7753 22.5195 18.8117 22.5195C18.8481 22.5195 18.8835 22.5319 18.9119 22.5547L22.8198 25.4605C23.0226 25.6114 23.2684 25.6934 23.5212 25.6943ZM23.5212 13.0021C23.5655 13.0021 23.6079 13.0197 23.6393 13.051C23.6706 13.0823 23.6882 13.1248 23.6882 13.1691V24.5253C23.6884 24.5562 23.6797 24.5865 23.6631 24.6126C23.6465 24.6386 23.6228 24.6594 23.5947 24.6722C23.5691 24.6898 23.5388 24.6991 23.5078 24.6991C23.4768 24.6991 23.4465 24.6898 23.421 24.6722L19.5131 21.753C19.3099 21.6033 19.0641 21.5225 18.8117 21.5225C18.5593 21.5225 18.3135 21.6033 18.1103 21.753L14.2358 24.6589C14.2103 24.6764 14.18 24.6858 14.149 24.6858C14.118 24.6858 14.0877 24.6764 14.0621 24.6589C14.034 24.646 14.0103 24.6253 13.9937 24.5992C13.9771 24.5731 13.9684 24.5428 13.9686 24.5119V13.1691C13.9681 13.144 13.9732 13.1192 13.9836 13.0964C13.994 13.0736 14.0094 13.0535 14.0287 13.0374C14.0479 13.0214 14.0705 13.0099 14.0948 13.0038C14.1191 12.9976 14.1445 12.9971 14.169 13.0021H23.5212Z" fill="black"/>
</svg>
